REM DIRINDEX 1\2,1\3,1\4
REM DIRNAME folder01,folder02,folder03,folder04
TITLE ""
FILE "DISC3Track19.mp3" MP3
  TRACK 01 AUDIO
    TITLE "0:"
    INDEX 01 00:00:00
  TRACK 02 AUDIO
    TITLE "4:cjc105_5084"
    INDEX 01 00:00:19
  TRACK 03 AUDIO
    TITLE "0:"
    INDEX 01 00:02:12
  TRACK 04 AUDIO
    TITLE "2:cjc105_5085"
    INDEX 01 00:02:57
  TRACK 05 AUDIO
    TITLE "3:cjc105_5086"
    INDEX 01 00:04:46
  TRACK 06 AUDIO
    TITLE "0:"
    INDEX 01 00:06:24
  TRACK 07 AUDIO
    TITLE "2:cjc105_5087"
    INDEX 01 00:06:43
  TRACK 08 AUDIO
    TITLE "3:cjc105_5088"
    INDEX 01 00:08:40
  TRACK 09 AUDIO
    TITLE "0:"
    INDEX 01 00:10:66
  TRACK 10 AUDIO
    TITLE "2:cjc105_5089"
    INDEX 01 00:11:11
  TRACK 11 AUDIO
    TITLE "3:cjc105_5090"
    INDEX 01 00:12:16
  TRACK 12 AUDIO
    TITLE "0:"
    INDEX 01 00:13:43
  TRACK 13 AUDIO
    TITLE "2:cjc105_5091"
    INDEX 01 00:13:61
  TRACK 14 AUDIO
    TITLE "3:cjc105_5092"
    INDEX 01 00:15:15
  TRACK 15 AUDIO
    TITLE "0:"
    INDEX 01 00:16:18
  TRACK 16 AUDIO
    TITLE "2:cjc105_5093"
    INDEX 01 00:16:44
  TRACK 17 AUDIO
    TITLE "3:cjc105_5094"
    INDEX 01 00:18:11
  TRACK 18 AUDIO
    TITLE "0:"
    INDEX 01 00:19:50
  TRACK 19 AUDIO
    TITLE "2:cjc105_5095"
    INDEX 01 00:19:71
  TRACK 20 AUDIO
    TITLE "3:cjc105_5096"
    INDEX 01 00:22:01
  TRACK 21 AUDIO
    TITLE "0:"
    INDEX 01 00:24:14
  TRACK 22 AUDIO
    TITLE "2:cjc105_5097"
    INDEX 01 00:24:35
  TRACK 23 AUDIO
    TITLE "3:cjc105_5098"
    INDEX 01 00:25:37
  TRACK 24 AUDIO
    TITLE "0:"
    INDEX 01 00:26:48
  TRACK 25 AUDIO
    TITLE "2:cjc105_5099"
    INDEX 01 00:26:69
  TRACK 26 AUDIO
    TITLE "3:cjc105_5100"
    INDEX 01 00:28:21
  TRACK 27 AUDIO
    TITLE "0:"
    INDEX 01 00:29:50
  TRACK 28 AUDIO
    TITLE "2:cjc105_5101"
    INDEX 01 00:29:72
  TRACK 29 AUDIO
    TITLE "3:cjc105_5102"
    INDEX 01 00:31:31
  TRACK 30 AUDIO
    TITLE "0:"
    INDEX 01 00:32:52
  TRACK 31 AUDIO
    TITLE "2:cjc105_5103"
    INDEX 01 00:32:68
  TRACK 32 AUDIO
    TITLE "3:cjc105_5104"
    INDEX 01 00:33:69
  TRACK 33 AUDIO
    TITLE "0:"
    INDEX 01 00:35:21
  TRACK 34 AUDIO
    TITLE "2:cjc105_5105"
    INDEX 01 00:35:39
  TRACK 35 AUDIO
    TITLE "3:cjc105_5106"
    INDEX 01 00:37:01
  TRACK 36 AUDIO
    TITLE "0:"
    INDEX 01 00:38:20
  TRACK 37 AUDIO
    TITLE "2:cjc105_5107"
    INDEX 01 00:38:43
  TRACK 38 AUDIO
    TITLE "3:cjc105_5108"
    INDEX 01 00:40:01
  TRACK 39 AUDIO
    TITLE "0:"
    INDEX 01 00:41:30
  TRACK 40 AUDIO
    TITLE "2:cjc105_5109"
    INDEX 01 00:41:51
  TRACK 41 AUDIO
    TITLE "3:cjc105_5110"
    INDEX 01 00:43:19
  TRACK 42 AUDIO
    TITLE "0:"
    INDEX 01 00:44:52
  TRACK 43 AUDIO
    TITLE "2:cjc105_5111"
    INDEX 01 00:44:73
  TRACK 44 AUDIO
    TITLE "3:cjc105_5112"
    INDEX 01 00:46:43
  TRACK 45 AUDIO
    TITLE "0:"
    INDEX 01 00:48:06
  TRACK 46 AUDIO
    TITLE "2:cjc105_5113"
    INDEX 01 00:48:30
  TRACK 47 AUDIO
    TITLE "3:cjc105_5114"
    INDEX 01 00:49:63
  TRACK 48 AUDIO
    TITLE "0:"
    INDEX 01 00:51:24
  TRACK 49 AUDIO
    TITLE "2:cjc105_5115"
    INDEX 01 00:51:40
  TRACK 50 AUDIO
    TITLE "3:cjc105_5116"
    INDEX 01 00:52:71
  TRACK 51 AUDIO
    TITLE "0:"
    INDEX 01 00:54:21
  TRACK 52 AUDIO
    TITLE "2:cjc105_5117"
    INDEX 01 00:54:44
  TRACK 53 AUDIO
    TITLE "3:cjc105_5118"
    INDEX 01 00:56:04
  TRACK 54 AUDIO
    TITLE "0:"
    INDEX 01 00:57:48
  TRACK 55 AUDIO
    TITLE "2:cjc105_5119"
    INDEX 01 00:57:66
  TRACK 56 AUDIO
    TITLE "3:cjc105_5120"
    INDEX 01 00:58:64
  TRACK 57 AUDIO
    TITLE "0:"
    INDEX 01 00:59:55
  TRACK 58 AUDIO
    TITLE "2:cjc105_5121"
    INDEX 01 00:59:73
  TRACK 59 AUDIO
    TITLE "3:cjc105_5122"
    INDEX 01 01:01:15
  TRACK 60 AUDIO
    TITLE "0:"
    INDEX 01 01:02:71
  TRACK 61 AUDIO
    TITLE "2:cjc105_5123"
    INDEX 01 01:03:16
  TRACK 62 AUDIO
    TITLE "3:cjc105_5124"
    INDEX 01 01:04:23
  TRACK 63 AUDIO
    TITLE "0:"
    INDEX 01 01:05:46
  TRACK 64 AUDIO
    TITLE "2:cjc105_5125"
    INDEX 01 01:05:68
  TRACK 65 AUDIO
    TITLE "3:cjc105_5126"
    INDEX 01 01:07:41
  TRACK 66 AUDIO
    TITLE "0:"
    INDEX 01 01:09:18
  TRACK 67 AUDIO
    TITLE "2:cjc105_5127"
    INDEX 01 01:09:36
  TRACK 68 AUDIO
    TITLE "3:cjc105_5128"
    INDEX 01 01:11:21
  TRACK 69 AUDIO
    TITLE "0:"
    INDEX 01 01:13:26
  TRACK 70 AUDIO
    TITLE "2:cjc105_5129"
    INDEX 01 01:13:47
  TRACK 71 AUDIO
    TITLE "3:cjc105_5130"
    INDEX 01 01:15:50
  TRACK 72 AUDIO
    TITLE "0:"
    INDEX 01 01:17:57
  TRACK 73 AUDIO
    TITLE "2:cjc105_5131"
    INDEX 01 01:18:00
  TRACK 74 AUDIO
    TITLE "3:cjc105_5132"
    INDEX 01 01:20:26
  TRACK 75 AUDIO
    TITLE "0:"
    INDEX 01 01:23:07
  TRACK 76 AUDIO
    TITLE "2:cjc105_5133"
    INDEX 01 01:23:28
  TRACK 77 AUDIO
    TITLE "3:cjc105_5134"
    INDEX 01 01:25:11
  TRACK 78 AUDIO
    TITLE "0:"
    INDEX 01 01:27:10
  TRACK 79 AUDIO
    TITLE "2:cjc105_5135"
    INDEX 01 01:27:28
  TRACK 80 AUDIO
    TITLE "3:cjc105_5136"
    INDEX 01 01:28:33
  TRACK 81 AUDIO
    TITLE "0:"
    INDEX 01 01:29:45
  TRACK 82 AUDIO
    TITLE "2:cjc105_5137"
    INDEX 01 01:29:62
  TRACK 83 AUDIO
    TITLE "3:cjc105_5138"
    INDEX 01 01:30:60
  TRACK 84 AUDIO
    TITLE "0:"
    INDEX 01 01:31:61
  TRACK 85 AUDIO
    TITLE "2:cjc105_5139"
    INDEX 01 01:32:06
  TRACK 86 AUDIO
    TITLE "3:cjc105_5140"
    INDEX 01 01:33:46
  TRACK 87 AUDIO
    TITLE "0:"
    INDEX 01 01:35:02
  TRACK 88 AUDIO
    TITLE "2:cjc105_5141"
    INDEX 01 01:35:22
  TRACK 89 AUDIO
    TITLE "3:cjc105_5142"
    INDEX 01 01:36:52
  TRACK 90 AUDIO
    TITLE "0:"
    INDEX 01 01:38:14
  TRACK 91 AUDIO
    TITLE "2:cjc105_5143"
    INDEX 01 01:38:34
  TRACK 92 AUDIO
    TITLE "3:cjc105_5144"
    INDEX 01 01:39:47
  TRACK 93 AUDIO
    TITLE "0:"
    INDEX 01 01:41:16
  TRACK 94 AUDIO
    TITLE "2:cjc105_5145"
    INDEX 01 01:41:34
  TRACK 95 AUDIO
    TITLE "3:cjc105_5146"
    INDEX 01 01:42:69
  TRACK 96 AUDIO
    TITLE "0:"
    INDEX 01 01:44:13
  TRACK 97 AUDIO
    TITLE "2:cjc105_5147"
    INDEX 01 01:44:30
  TRACK 98 AUDIO
    TITLE "3:cjc105_5148"
    INDEX 01 01:45:69
  TRACK 99 AUDIO
    TITLE "0:"
    INDEX 01 01:47:13
  TRACK 100 AUDIO
    TITLE "2:cjc105_5149"
    INDEX 01 01:47:33
  TRACK 101 AUDIO
    TITLE "3:cjc105_5150"
    INDEX 01 01:49:14
  TRACK 102 AUDIO
    TITLE "0:"
    INDEX 01 01:50:35
  TRACK 103 AUDIO
    TITLE "2:cjc105_5151"
    INDEX 01 01:50:58
  TRACK 104 AUDIO
    TITLE "3:cjc105_5152"
    INDEX 01 01:51:60
  TRACK 105 AUDIO
    TITLE "0:"
    INDEX 01 01:52:71
  TRACK 106 AUDIO
    TITLE "2:cjc105_5153"
    INDEX 01 01:53:16
  TRACK 107 AUDIO
    TITLE "3:cjc105_5154"
    INDEX 01 01:54:64
  TRACK 108 AUDIO
    TITLE "0:"
    INDEX 01 01:56:37
  TRACK 109 AUDIO
    TITLE "2:cjc105_5155"
    INDEX 01 01:56:59
  TRACK 110 AUDIO
    TITLE "3:cjc105_5156"
    INDEX 01 01:57:62
  TRACK 111 AUDIO
    TITLE "0:"
    INDEX 01 01:59:44
  TRACK 112 AUDIO
    TITLE "2:cjc105_5157"
    INDEX 01 01:59:63
  TRACK 113 AUDIO
    TITLE "3:cjc105_5158"
    INDEX 01 02:00:72
  TRACK 114 AUDIO
    TITLE "0:"
    INDEX 01 02:02:24
  TRACK 115 AUDIO
    TITLE "2:cjc105_5159"
    INDEX 01 02:02:44
  TRACK 116 AUDIO
    TITLE "3:cjc105_5160"
    INDEX 01 02:03:73
  TRACK 117 AUDIO
    TITLE "0:"
    INDEX 01 02:05:19
  TRACK 118 AUDIO
    TITLE "2:cjc105_5161"
    INDEX 01 02:05:38
  TRACK 119 AUDIO
    TITLE "3:cjc105_5162"
    INDEX 01 02:06:30
  TRACK 120 AUDIO
    TITLE "0:"
    INDEX 01 02:07:26
  TRACK 121 AUDIO
    TITLE "2:cjc105_5163"
    INDEX 01 02:07:47
  TRACK 122 AUDIO
    TITLE "3:cjc105_5164"
    INDEX 01 02:08:74
  TRACK 123 AUDIO
    TITLE "0:"
    INDEX 01 02:10:34
  TRACK 124 AUDIO
    TITLE "2:cjc105_5165"
    INDEX 01 02:10:53
  TRACK 125 AUDIO
    TITLE "3:cjc105_5166"
    INDEX 01 02:12:36
  TRACK 126 AUDIO
    TITLE "0:"
    INDEX 01 02:14:04
  TRACK 127 AUDIO
    TITLE "2:cjc105_5167"
    INDEX 01 02:14:24
  TRACK 128 AUDIO
    TITLE "3:cjc105_5168"
    INDEX 01 02:15:35
  TRACK 129 AUDIO
    TITLE "0:"
    INDEX 01 02:17:18
  TRACK 130 AUDIO
    TITLE "2:cjc105_5169"
    INDEX 01 02:17:36
  TRACK 131 AUDIO
    TITLE "3:cjc105_5170"
    INDEX 01 02:18:61
  TRACK 132 AUDIO
    TITLE "0:"
    INDEX 01 02:20:28
  TRACK 133 AUDIO
    TITLE "2:cjc105_5171"
    INDEX 01 02:20:46
  TRACK 134 AUDIO
    TITLE "3:cjc105_5172"
    INDEX 01 02:22:19
  TRACK 135 AUDIO
    TITLE "0:"
    INDEX 01 02:23:52
  TRACK 136 AUDIO
    TITLE "2:cjc105_5173"
    INDEX 01 02:23:68
  TRACK 137 AUDIO
    TITLE "3:cjc105_5174"
    INDEX 01 02:25:14
  TRACK 138 AUDIO
    TITLE "0:"
    INDEX 01 02:26:25
  TRACK 139 AUDIO
    TITLE "2:cjc105_5175"
    INDEX 01 02:26:46
  TRACK 140 AUDIO
    TITLE "3:cjc105_5176"
    INDEX 01 02:28:10
  TRACK 141 AUDIO
    TITLE "0:"
    INDEX 01 02:29:41
  TRACK 142 AUDIO
    TITLE "2:cjc105_5177"
    INDEX 01 02:29:57
  TRACK 143 AUDIO
    TITLE "3:cjc105_5178"
    INDEX 01 02:30:62
  TRACK 144 AUDIO
    TITLE "0:"
    INDEX 01 02:31:73
  TRACK 145 AUDIO
    TITLE "2:cjc105_5179"
    INDEX 01 02:32:16
  TRACK 146 AUDIO
    TITLE "3:cjc105_5180"
    INDEX 01 02:33:41
  TRACK 147 AUDIO
    TITLE "0:"
    INDEX 01 02:35:12
  TRACK 148 AUDIO
    TITLE "2:cjc105_5181"
    INDEX 01 02:35:30
  TRACK 149 AUDIO
    TITLE "3:cjc105_5182"
    INDEX 01 02:36:51
  TRACK 150 AUDIO
    TITLE "0:"
    INDEX 01 02:37:60
  TRACK 151 AUDIO
    TITLE "2:cjc105_5183"
    INDEX 01 02:38:06
  TRACK 152 AUDIO
    TITLE "3:cjc105_5184"
    INDEX 01 02:39:29
  TRACK 153 AUDIO
    TITLE "0:"
    INDEX 01 02:40:62
  TRACK 154 AUDIO
    TITLE "2:cjc105_5185"
    INDEX 01 02:41:11
  TRACK 155 AUDIO
    TITLE "3:cjc105_5186"
    INDEX 01 02:42:12
  TRACK 156 AUDIO
    TITLE "0:"
    INDEX 01 02:43:31
  TRACK 157 AUDIO
    TITLE "2:cjc105_5187"
    INDEX 01 02:43:51
  TRACK 158 AUDIO
    TITLE "3:cjc105_5188"
    INDEX 01 02:44:54
  TRACK 159 AUDIO
    TITLE "0:"
    INDEX 01 02:45:73
  TRACK 160 AUDIO
    TITLE "2:cjc105_5189"
    INDEX 01 02:46:18
  TRACK 161 AUDIO
    TITLE "3:cjc105_5190"
    INDEX 01 02:47:35
  TRACK 162 AUDIO
    TITLE "0:"
    INDEX 01 02:48:64
  TRACK 163 AUDIO
    TITLE "2:cjc105_5191"
    INDEX 01 02:49:08
  TRACK 164 AUDIO
    TITLE "3:cjc105_5192"
    INDEX 01 02:50:35
  TRACK 165 AUDIO
    TITLE "0:"
    INDEX 01 02:51:48
  TRACK 166 AUDIO
    TITLE "2:cjc105_5193"
    INDEX 01 02:51:70
  TRACK 167 AUDIO
    TITLE "3:cjc105_5194"
    INDEX 01 02:53:24
  TRACK 168 AUDIO
    TITLE "0:"
    INDEX 01 02:54:45
  TRACK 169 AUDIO
    TITLE "2:cjc105_5195"
    INDEX 01 02:54:68
  TRACK 170 AUDIO
    TITLE "3:cjc105_5196"
    INDEX 01 02:56:20
  TRACK 171 AUDIO
    TITLE "0:"
    INDEX 01 02:57:43
  TRACK 172 AUDIO
    TITLE "2:cjc105_5197"
    INDEX 01 02:57:65
  TRACK 173 AUDIO
    TITLE "3:cjc105_5198"
    INDEX 01 02:58:74
  TRACK 174 AUDIO
    TITLE "0:"
    INDEX 01 03:00:12
  TRACK 175 AUDIO
    TITLE "2:cjc105_5199"
    INDEX 01 03:00:32
  TRACK 176 AUDIO
    TITLE "3:cjc105_5200"
    INDEX 01 03:01:37
  TRACK 177 AUDIO
    TITLE "0:"
    INDEX 01 03:02:54
  TRACK 178 AUDIO
    TITLE "2:cjc105_5201"
    INDEX 01 03:02:74
  TRACK 179 AUDIO
    TITLE "3:cjc105_5202"
    INDEX 01 03:04:29
  TRACK 180 AUDIO
    TITLE "0:"
    INDEX 01 03:05:64
  TRACK 181 AUDIO
    TITLE "2:cjc105_5203"
    INDEX 01 03:06:11
  TRACK 182 AUDIO
    TITLE "3:cjc105_5204"
    INDEX 01 03:07:34
  TRACK 183 AUDIO
    TITLE "0:"
    INDEX 01 03:08:68
  TRACK 184 AUDIO
    TITLE "2:cjc105_5205"
    INDEX 01 03:09:11
  TRACK 185 AUDIO
    TITLE "3:cjc105_5206"
    INDEX 01 03:10:12
  TRACK 186 AUDIO
    TITLE "0:"
    INDEX 01 03:12:15
  TRACK 187 AUDIO
    TITLE "2:cjc105_5207"
    INDEX 01 03:12:33
  TRACK 188 AUDIO
    TITLE "3:cjc105_5208"
    INDEX 01 03:13:46
  TRACK 189 AUDIO
    TITLE "0:"
    INDEX 01 03:15:43
  TRACK 190 AUDIO
    TITLE "2:cjc105_5209"
    INDEX 01 03:15:64
  TRACK 191 AUDIO
    TITLE "3:cjc105_5210"
    INDEX 01 03:17:16
  TRACK 192 AUDIO
    TITLE "0:"
    INDEX 01 03:19:51
  TRACK 193 AUDIO
    TITLE "2:cjc105_5211"
    INDEX 01 03:19:68
  TRACK 194 AUDIO
    TITLE "3:cjc105_5212"
    INDEX 01 03:22:00
  TRACK 195 AUDIO
    TITLE "0:"
    INDEX 01 03:24:46
  TRACK 196 AUDIO
    TITLE "2:cjc105_5213"
    INDEX 01 03:24:63
  TRACK 197 AUDIO
    TITLE "3:cjc105_5214"
    INDEX 01 03:25:69
  TRACK 198 AUDIO
    TITLE "0:"
    INDEX 01 03:27:56
  TRACK 199 AUDIO
    TITLE "2:cjc105_5215"
    INDEX 01 03:27:72
  TRACK 200 AUDIO
    TITLE "3:cjc105_5216"
    INDEX 01 03:29:57
  TRACK 201 AUDIO
    TITLE "0:"
    INDEX 01 03:32:41
  TRACK 202 AUDIO
    TITLE "2:cjc105_5217"
    INDEX 01 03:32:61
  TRACK 203 AUDIO
    TITLE "3:cjc105_5218"
    INDEX 01 03:33:64
  TRACK 204 AUDIO
    TITLE "0:"
    INDEX 01 03:35:73
  TRACK 205 AUDIO
    TITLE "2:cjc105_5219"
    INDEX 01 03:36:16
  TRACK 206 AUDIO
    TITLE "3:cjc105_5220"
    INDEX 01 03:38:15
  TRACK 207 AUDIO
    TITLE "0:"
    INDEX 01 03:39:51
  TRACK 208 AUDIO
    TITLE "2:cjc105_5221"
    INDEX 01 03:39:71
  TRACK 209 AUDIO
    TITLE "3:cjc105_5222"
    INDEX 01 03:41:62
  TRACK 210 AUDIO
    TITLE "0:"
    INDEX 01 03:43:37
  TRACK 211 AUDIO
    TITLE "2:cjc105_5223"
    INDEX 01 03:43:53
  TRACK 212 AUDIO
    TITLE "3:cjc105_5224"
    INDEX 01 03:45:46
  TRACK 213 AUDIO
    TITLE "0:"
    INDEX 01 03:47:51
  TRACK 214 AUDIO
    TITLE "2:cjc105_5225"
    INDEX 01 03:47:72
  TRACK 215 AUDIO
    TITLE "3:cjc105_5226"
    INDEX 01 03:49:28
  TRACK 216 AUDIO
    TITLE "0:"
    INDEX 01 03:50:65
  TRACK 217 AUDIO
    TITLE "2:cjc105_5227"
    INDEX 01 03:51:11
  TRACK 218 AUDIO
    TITLE "3:cjc105_5228"
    INDEX 01 03:52:28
  TRACK 219 AUDIO
    TITLE "0:"
    INDEX 01 03:53:67
  TRACK 220 AUDIO
    TITLE "2:cjc105_5229"
    INDEX 01 03:54:19
  TRACK 221 AUDIO
    TITLE "3:cjc105_5230"
    INDEX 01 03:55:21
  TRACK 222 AUDIO
    TITLE "0:"
    INDEX 01 03:56:63
